<svg
  width="24" height="24"
  viewBox="0 0 24 24"
  fill="none" xmlns="http://www.w3.org/2000/svg">
  <path
    d="M12 21.288L4.06802 12.72C2.94002 11.496 2.40002 10.224 2.40002 8.84398C2.40002 5.95198 4.69202 3.59998 7.50002 3.59998C9.44402 3.59998 11.136 4.72798 12 6.38398C12.864 4.72798 14.556 3.59998 16.5 3.59998C19.308 3.59998 21.6 5.95198 21.6 8.84398C21.6 10.224 21.06 11.484 19.944 12.708L12 21.288ZM7.50002 4.79998C5.35202 4.79998 3.60002 6.61198 3.60002 8.84398C3.60002 9.92398 4.03202 10.896 4.94402 11.904L12 19.512L19.056 11.904C19.968 10.896 20.4 9.92398 20.4 8.84398C20.4 6.61198 18.648 4.79998 16.5 4.79998C14.352 4.79998 12.6 6.61198 12.6 8.84398H11.4C11.4 6.61198 9.64802 4.79998 7.50002 4.79998Z"
    fill="currentColor"
  />
</svg>