<svg width="24" height="24" viewBox="0 0 24 24" fill="none" xmlns="http://www.w3.org/2000/svg">
<g id="MY">
<path id="Vector" d="M20.4001 19.1998H19.2001C19.2001 15.2398 15.9601 11.9998 12.0001 11.9998C8.0401 11.9998 4.8001 15.2398 4.8001 19.1998H3.6001C3.6001 14.5198 7.3201 10.7998 12.0001 10.7998C16.6801 10.7998 20.4001 14.5198 20.4001 19.1998Z" fill="black"/>
<path id="Vector_2" fill-rule="evenodd" clip-rule="evenodd" d="M9 6.6001C9 8.2801 10.32 9.6001 12 9.6001C13.68 9.6001 15 8.2801 15 6.6001C15 4.9201 13.68 3.6001 12 3.6001C10.32 3.6001 9 4.9201 9 6.6001ZM10.2 6.6001C10.2 5.6401 11.04 4.8001 12 4.8001C12.96 4.8001 13.8 5.6401 13.8 6.6001C13.8 7.5601 12.96 8.4001 12 8.4001C11.04 8.4001 10.2 7.5601 10.2 6.6001Z" fill="black"/>
</g>
</svg>
