<svg width="122" height="101" viewBox="0 0 122 101" fill="none" xmlns="http://www.w3.org/2000/svg">
<path d="M29 20L120.038 26.5015" stroke="black" stroke-width="2" stroke-linecap="round"/>
<path d="M120 26.5L106.5 66.4999" stroke="black" stroke-width="2" stroke-linecap="round"/>
<path d="M43.0078 65L42.0079 64.9922L41.9921 66.9921L42.9921 67L43.0078 65ZM106.508 65.5L43.0078 65L42.9921 67L106.492 67.5L106.508 65.5Z" fill="black"/>
<path d="M62 84H89.5" stroke="black" stroke-width="2" stroke-linecap="round"/>
<circle cx="51" cy="88" r="11" stroke="black" stroke-width="2"/>
<circle cx="100" cy="89" r="11" stroke="black" stroke-width="2"/>
<path d="M73.75 56.2784C72.2519 56.2784 70.9759 55.8707 69.9219 55.0554C68.8679 54.2334 68.0625 53.0436 67.5057 51.4858C66.9489 49.9214 66.6705 48.0322 66.6705 45.8182C66.6705 43.6174 66.9489 41.7382 67.5057 40.1804C68.0691 38.616 68.8778 37.4228 69.9318 36.6009C70.9924 35.7723 72.2652 35.358 73.75 35.358C75.2348 35.358 76.5043 35.7723 77.5582 36.6009C78.6188 37.4228 79.4276 38.616 79.9844 40.1804C80.5478 41.7382 80.8295 43.6174 80.8295 45.8182C80.8295 48.0322 80.5511 49.9214 79.9943 51.4858C79.4375 53.0436 78.6321 54.2334 77.5781 55.0554C76.5241 55.8707 75.2481 56.2784 73.75 56.2784ZM73.75 54.0909C75.2348 54.0909 76.3883 53.375 77.2102 51.9432C78.0322 50.5114 78.4432 48.4697 78.4432 45.8182C78.4432 44.0549 78.2543 42.5535 77.8764 41.3139C77.5052 40.0743 76.9683 39.1297 76.2656 38.4801C75.5696 37.8305 74.7311 37.5057 73.75 37.5057C72.2784 37.5057 71.1283 38.2315 70.2997 39.6832C69.4711 41.1283 69.0568 43.1733 69.0568 45.8182C69.0568 47.5814 69.2424 49.0795 69.6136 50.3125C69.9848 51.5455 70.5185 52.4834 71.2145 53.1264C71.9171 53.7694 72.7623 54.0909 73.75 54.0909Z" fill="black"/>
<path d="M1 1H23" stroke="black" stroke-width="2" stroke-linecap="round"/>
<path d="M22.9999 0.999998L46 77" stroke="black" stroke-width="2" stroke-linecap="round"/>
</svg>
