<svg width="24" height="24" viewBox="0 0 24 24" fill="none" xmlns="http://www.w3.org/2000/svg">
<g id="&#236;&#132;&#160;&#235;&#172;&#188;&#237;&#149;&#152;&#234;&#184;&#176;">
<rect width="24" height="24" />
<path id="Vector" fill-rule="evenodd" clip-rule="evenodd" d="M17.0349 7.19974C17.5869 6.32087 17.5593 5.19699 16.9649 4.34624C16.5749 3.78781 15.9784 3.40786 15.3074 3.29052C14.6365 3.17318 13.9464 3.32812 13.3901 3.72104C12.8185 4.18909 12.4146 4.83029 12.2394 5.54794L12.0001 6.21744L11.761 5.54744C11.5856 4.82994 11.1816 4.18893 10.6101 3.72104C10.0537 3.32793 9.36349 3.17287 8.6924 3.29022C8.02131 3.40757 7.42469 3.78764 7.0347 4.34624C6.44049 5.19709 6.41304 6.3209 6.965 7.19974H3.6001V11.9998H4.8001V20.4021L19.2001 20.3998V11.9998H20.4001V7.19974H17.0349ZM13.3725 5.94464C13.4767 5.46728 13.7244 5.03322 14.0825 4.70074C14.3783 4.49168 14.7454 4.4093 15.1022 4.47189C15.4591 4.53448 15.7762 4.73686 15.9833 5.03414C16.4179 5.65596 16.2692 6.51206 15.6502 6.95074C15.4292 7.10826 15.1656 7.19507 14.8943 7.19975H12.9243L13.3725 5.94464ZM8.01682 5.03374C7.58222 5.65505 7.73029 6.51062 8.34841 6.94974C8.57181 7.10874 8.83834 7.19594 9.11251 7.19974H11.0754L10.6272 5.94504C10.523 5.46767 10.2752 5.03361 9.91721 4.70114C9.68891 4.5387 9.41571 4.45133 9.13551 4.45114C9.05658 4.45131 8.9778 4.45817 8.90001 4.47164C8.54244 4.53375 8.22449 4.7361 8.01682 5.03374ZM4.80013 8.39974H11.4001V10.7998H4.80013V8.39974ZM11.4001 11.9998H6.00016V19.2021L11.4001 19.2011V11.9998ZM18.0001 19.1998L12.6001 19.2008V11.9998H18.0001V19.1998ZM12.6001 10.7998H19.2001V8.39974H12.6001V10.7998Z" fill="black"/>
</g>
</svg>
