<svg width="24" height="24" viewBox="0 0 24 24" fill="none" xmlns="http://www.w3.org/2000/svg">
<g id="&#236;&#181;&#156;&#234;&#183;&#188;&#235;&#179;&#184;">
<path id="Vector" fill-rule="evenodd" clip-rule="evenodd" d="M7.2002 12.0002C7.2002 14.6402 9.3602 16.8002 12.0002 16.8002C14.6402 16.8002 16.8002 14.6402 16.8002 12.0002C16.8002 9.3602 14.6402 7.2002 12.0002 7.2002C9.3602 7.2002 7.2002 9.3602 7.2002 12.0002ZM8.40023 12.0002C8.40023 9.96019 9.96023 8.40019 12.0002 8.40019C14.0402 8.40019 15.6002 9.96019 15.6002 12.0002C15.6002 14.0402 14.0402 15.6002 12.0002 15.6002C9.96023 15.6002 8.40023 14.0402 8.40023 12.0002Z" fill="black"/>
<path id="Vector_2" fill-rule="evenodd" clip-rule="evenodd" d="M1.32008 12.3598C1.44008 12.5998 5.64008 19.1998 12.0001 19.1998C18.3601 19.1998 22.5601 12.5998 22.6801 12.3598L22.9201 11.9998L22.6801 11.6398C22.5601 11.3998 18.3601 4.7998 12.0001 4.7998C5.64008 4.7998 1.44008 11.3998 1.32008 11.6398L1.08008 11.9998L1.32008 12.3598ZM12.0001 17.9998C7.08009 17.9998 3.36009 13.3198 2.52009 11.9998C3.36009 10.6798 7.08009 5.9998 12.0001 5.9998C16.9201 5.9998 20.6401 10.6798 21.4801 11.9998C20.6401 13.3198 16.9201 17.9998 12.0001 17.9998Z" fill="black"/>
</g>
</svg>
