<svg width="86" height="40" viewBox="0 0 86 40" fill="none" xmlns="http://www.w3.org/2000/svg">
<g id="ssg 1" clip-path="url(#clip0_125_132)">
<g id="Group">
<path id="Vector" fillRule="evenodd" clipRule="evenodd" d="M30.743 13C33.166 13 34.628 13.648 36.031 14.83L34.166 17.062C33.128 16.204 32.205 15.708 30.647 15.708C28.494 15.708 26.782 17.596 26.782 19.865V19.903C26.782 22.344 28.474 24.137 30.859 24.137C31.936 24.137 32.897 23.87 33.647 23.336V21.429H30.667V18.893H36.512V24.69C35.128 25.853 33.224 26.807 30.762 26.807C26.571 26.807 23.686 23.889 23.686 19.941V19.903C23.686 16.108 26.666 13 30.743 13ZM49.927 13C52.466 13 53.985 13.839 55.234 15.06L53.35 17.214C52.312 16.28 51.254 15.708 49.908 15.708C47.639 15.708 46.005 17.577 46.005 19.865V19.903C46.005 22.192 47.601 24.099 49.908 24.099C51.446 24.099 52.388 23.489 53.446 22.535L55.331 24.423C53.946 25.891 52.408 26.807 49.811 26.807C45.851 26.807 42.909 23.774 42.909 19.941V19.903C42.909 16.108 45.793 13 49.927 13ZM63.022 13C67.175 13 70.156 16.07 70.156 19.865V19.903C70.156 23.698 67.136 26.807 62.983 26.807C58.83 26.807 55.849 23.737 55.849 19.941V19.903C55.849 16.108 58.869 13 63.022 13ZM5.25 13.038C7.211 13.038 8.884 13.648 10.25 14.735L8.71 16.947C7.519 16.127 6.346 15.632 5.211 15.632C4.076 15.632 3.481 16.146 3.481 16.795V16.833C3.481 17.71 4.057 17.996 6.384 18.588C9.114 19.293 10.653 20.266 10.653 22.592V22.63C10.653 25.281 8.615 26.768 5.711 26.768C3.673 26.768 1.615 26.063 0 24.633L1.75 22.553C2.961 23.545 4.23 24.175 5.769 24.175C6.98 24.175 7.711 23.698 7.711 22.916V22.878C7.711 22.135 7.249 21.753 5 21.181C2.288 20.495 0.538 19.751 0.538 17.1V17.062C0.538 14.64 2.5 13.038 5.25 13.038ZM17.075 13.038C19.036 13.038 20.709 13.648 22.075 14.735L20.536 16.947C19.344 16.127 18.171 15.632 17.036 15.632C15.902 15.632 15.306 16.146 15.306 16.795V16.833C15.306 17.71 15.883 17.996 18.21 18.588C20.94 19.293 22.478 20.266 22.478 22.592V22.63C22.478 25.281 20.44 26.768 17.537 26.768C15.498 26.768 13.441 26.063 11.826 24.633L13.576 22.553C14.786 23.545 16.056 24.175 17.594 24.175C18.806 24.175 19.536 23.698 19.536 22.916V22.878C19.536 22.135 19.075 21.753 16.826 21.181C14.114 20.495 12.364 19.751 12.364 17.1V17.062C12.364 14.64 14.325 13.038 17.075 13.038ZM40.447 23.398C41.369 23.398 42.116 24.138 42.116 25.052C42.116 25.966 41.369 26.707 40.447 26.707C39.526 26.707 38.779 25.967 38.779 25.052C38.779 24.139 39.526 23.398 40.447 23.398ZM74.732 13.228L78.27 18.874L81.808 13.229H85V26.578H82.058V17.863L78.27 23.565H78.193L74.443 17.92V26.578H71.54V13.228H74.732ZM62.983 15.708C60.599 15.708 58.945 17.577 58.945 19.865V19.903C58.945 22.192 60.637 24.099 63.022 24.099C65.406 24.099 67.06 22.23 67.06 19.941V19.903C67.06 17.615 65.368 15.708 62.983 15.708Z" fill="black"/>
</g>
</g>
<defs>
<clipPath id="clip0_125_132">
<rect width="86" height="40" fill="white"/>
</clipPath>
</defs>
</svg>
